<svg id="Layer_1" data-name="Layer 1" xmlns="http://www.w3.org/2000/svg" viewBox="0 0 394.1 298.9"><defs><style>.cls-1{fill:#fff;}.cls-2{fill:#016bab;}</style></defs><title>scg-logo</title><rect class="cls-1" width="383.6" height="248.2"/><path class="cls-2" d="M101.8,208q-.5-1.2-.9,0L96,223.2c-.1.3,0,.4.1.4h10.8c.3,0,.3-.1.2-.4Z"/><path class="cls-2" d="M252.2,200.8c-9.5,0-16.5,6.2-16.5,18.6s7.9,21.6,18,21.6c5.1,0,15.6-3,15.6-19.4C269.3,208.1,261.1,200.8,252.2,200.8Z"/><path class="cls-2" d="M303.8,200.8c-9.5,0-16.5,6.2-16.5,18.6s7.9,21.6,18,21.6c5.1,0,15.6-3,15.6-19.4C320.9,208.1,312.7,200.8,303.8,200.8Z"/><path class="cls-2" d="M141.1,201.5a14.7,14.7,0,0,0-3.7.3.8.8,0,0,0-.5.7v18.4a.8.8,0,0,0,.4.7c.8.5,3.4.9,5.9.9a7.2,7.2,0,0,0,4.2-1.1c2-1.3,3.5-4.4,3.5-8.6C150.9,205.7,147.2,201.5,141.1,201.5Z"/><path class="cls-2" d="M347.4,201.6a17.3,17.3,0,0,0-3.7.4c-.5.2-.6.5-.6,1.1s-.1,7.7-.1,12v7c0,6,.1,11.2.1,12.3s.2,3.6.6,4.2,3,2.3,9.6,2.3a18.8,18.8,0,0,0,13.4-5.2c3-2.9,4.6-8.3,4.6-13.5a19.6,19.6,0,0,0-5.5-14.2C360.5,202.4,354.1,201.6,347.4,201.6Z"/><path class="cls-2" d="M0,68.5V44.7L46.2,57.3,83.8,0H0V127.6L21.3,95.1Z"/><path class="cls-2" d="M86.4,0l3.4,69.2,70.6,19.3L92,114.4l3.6,73.3L49.7,130.4,0,149.2V255.5H394.1V0ZM36.8,240.7a14.8,14.8,0,0,1-8.5,2.4,17.8,17.8,0,0,1-7.6-1.5c-.7-.4-.8-.6-.8-2.2a55.9,55.9,0,0,1,.3-5.9c0-.7.2-1,.4-1s.4.2.4.7a8.6,8.6,0,0,0,.2,2.1c.8,4.1,4.6,5.7,8.3,5.7,5.5,0,8.1-3.9,8.1-7.5s-1.6-6.1-6.5-10.1l-2.5-2.1c-6-4.9-7.4-8.4-7.4-12.3,0-6,4.6-10.1,11.7-10.1a25,25,0,0,1,5.3.5,5.7,5.7,0,0,0,1.9.3c.5,0,.6.1.6.4s-.2,2.2-.2,6c0,.9-.1,1.3-.4,1.3s-.4-.3-.5-.7a10.2,10.2,0,0,0-.7-2.9c-.3-.6-1.9-2.9-7-2.9s-7,2.4-7,6.5,1.6,5.1,6.9,9.5l1.6,1.2c6.6,5.3,8.2,8.8,8.2,13.3A11.5,11.5,0,0,1,36.8,240.7Zm32-2.5c.2,1.6.5,2.9,2.2,3.1l2.5.2c.4,0,.5.2.5.4s-.3.4-.9.4l-7-.2-5.5.2c-.6,0-.9-.1-.9-.4s.1-.4.5-.4l1.7-.2c1.1-.2,1.4-1.5,1.6-3.1s.3-6.8.3-12.2V202.1H55.4c-3.5.1-4.8.5-5.7,1.8l-1,1.8c-.2.4-.3.5-.6.5s-.2-.1-.2-.5,1.1-5.4,1.2-5.8.3-1.1.6-1.1a15.1,15.1,0,0,0,2.5.7l4.4.2H77.7a29.1,29.1,0,0,0,5.6-.5c.3,0,.3.3.3.7s-.2,5.5-.2,6.2-.1.7-.4.7-.3-.2-.4-1v-.6c-.2-1.7-1.5-3-6.9-3.1H68.5V226C68.5,231.4,68.5,235.8,68.8,238.2Zm54.4,4.1h-8.9c-1-.1-1.6-.1-1.6-.4s.1-.3.4-.4.6-.6.3-1.5L108.1,226a.5.5,0,0,0-.5-.3H95.5c-.3,0-.4.1-.5.4l-3.4,10a12.3,12.3,0,0,0-.8,3.8c0,1.1,1.2,1.6,2.1,1.6h.6c.4,0,.5.1.5.4s-.3.4-.8.4l-4.4-.2-6.4.2c-.7,0-1-.1-1-.4s.2-.4.5-.4h1.6c2.6-.3,3.7-2.5,4.7-5.3l12.8-35c.7-1.9.9-2.2,1.3-2.2s.5.3,1.2,2,9.7,25.4,13.2,34c2,5,3.6,5.9,4.8,6.3a6.9,6.9,0,0,0,2.3.3c.3,0,.5.1.5.4S123.8,242.3,123.2,242.3Zm45.6,0h-4c-3.2,0-4.6-.3-6.1-1.1s-4.4-4-7.6-8.3-5-6.8-6.1-8.3a1.1,1.1,0,0,0-.8-.3h-6.9c-.3,0-.4.1-.4.4V226c0,5.4,0,9.8.3,12.2s.5,2.9,2.2,3.1l2.5.2c.4,0,.5.2.5.4s-.3.4-.9.4l-7-.2-5.3.2c-.6,0-.9-.1-.9-.4s.1-.4.5-.4l1.7-.2c1.1-.2,1.4-1.5,1.6-3.1s.3-6.8.3-12.2V216c0-8.8,0-10.3-.1-12.2s-.6-2.8-2.4-3.2h-2a.4.4,0,0,1-.4-.4c0-.3.3-.4.9-.4h13c3.6,0,7.3.3,10.3,2.5a9.7,9.7,0,0,1,3.9,7.6c0,4.2-1.7,8.4-6.8,13.1,4.6,5.9,8.5,10.9,11.7,14.4s5.5,3.8,6.9,4l2.2.2a.5.5,0,0,1,.5.4C170.1,242.2,169.8,242.3,168.8,242.3Zm58.3-41.8a8.3,8.3,0,0,0-2,.2c-1.6.7-2.5,3-3.6,6.1-2.5,7.2-8.2,25.1-10.4,31.4-1.5,4.2-1.7,4.9-2.4,4.9s-.9-.7-1.7-2.9l-11-31.4h-.1c-2,5.4-9.8,26.1-11.8,31.3-.9,2.4-1.2,3-1.9,3s-.8-.6-1.9-4.5l-10.1-33.4c-.9-3-1.6-3.8-3.1-4.4a8,8,0,0,0-2.5-.3c-.3,0-.5-.1-.5-.4s.3-.4.9-.4h12.4c.8,0,1.1.1,1.1.4s-.3.4-.6.4a6.1,6.1,0,0,0-2.2.3,1.6,1.6,0,0,0-.7,1.4,51.5,51.5,0,0,0,1,5.1c.9,3.7,6.7,24.4,7.6,27.3h.1l12-32.1c.8-2.3,1-2.6,1.4-2.6s.7.7,1.4,2.7l11.2,31.9h.2c1.5-5.2,6.7-21.5,8.7-28.7a11.2,11.2,0,0,0,.6-3.6c0-1.1-.6-1.7-3.2-1.7a.5.5,0,0,1-.5-.4c0-.3.3-.4,1-.4h10.3c.5,0,.8.1.8.3A.5.5,0,0,1,227.1,200.5Zm25.1,42.6c-15.4,0-21.9-12-21.9-22.2s6.7-22,22.3-22c12.6,0,22.1,8,22.1,21.1S265.8,243.1,252.2,243.1Zm51.6,0c-15.4,0-21.9-12-21.9-22.2s6.7-22,22.2-22c12.7,0,22.2,8,22.2,21.1S317.4,243.1,303.8,243.1Zm66.4-6.8c-2.4,2.6-7.5,6.5-17,6.5-4.9,0-12-.7-12.6-.7l-5.5.2c-.6,0-.9-.1-.9-.4s.1-.4.5-.4l1.7-.2c1.1-.2,1.4-1.5,1.6-3.1s.3-6.8.3-12.2V216c0-8.8,0-10.3-.1-12.2s-.6-2.8-2.5-3.2h-1.9a.4.4,0,0,1-.4-.4c0-.3.2-.4.9-.4h13.9c5.6,0,16-.5,22.7,6.4a20.1,20.1,0,0,1,5.4,14.3A22.8,22.8,0,0,1,370.2,236.3Z"/><path class="cls-1" d="M39.5,291.8c-.2,0-.2.1-.3.5a6.5,6.5,0,0,1-1.4,3.1c-1.4,1.5-3.6,1.8-6.4,1.8a13.2,13.2,0,0,1-13.2-13.4c0-3.7.6-7,3.3-9.6s3.5-2.7,8.4-2.7c3.3,0,6.1,1,7.4,2.1a5.3,5.3,0,0,1,1.5,3.8c0,.5.1.7.3.7s.3-.2.3-.7.1-2.6.1-3.8.2-1.8.2-2.1,0-.3-.4-.4a28.4,28.4,0,0,1-3.8-.5,34.9,34.9,0,0,0-5.3-.5c-5.7,0-9,1.8-11.2,4a15,15,0,0,0,.3,20.9c2.9,2.6,6.6,3.9,12.1,3.9a20.5,20.5,0,0,0,6.6-.8c.7-.3.8-.4,1-1.1a30.5,30.5,0,0,0,.8-4.7C39.8,292,39.7,291.8,39.5,291.8Z"/><path class="cls-1" d="M72.4,297.9a4.1,4.1,0,0,1-1.5-.2c-.8-.2-1.8-.8-3.2-4.1-2.2-5.6-8-20.7-8.5-22.1s-.6-1.4-.8-1.4-.4.3-.8,1.5l-8.4,22.8c-.6,1.8-1.4,3.2-3,3.4H45.1c-.2,0-.3.1-.3.2s.2.3.7.3h7c.3,0,.5-.1.5-.3s-.1-.2-.3-.2h-.4c-.6,0-1.4-.3-1.4-1.1a8.6,8.6,0,0,1,.5-2.4l2.2-6.5c.1-.2.2-.3.4-.3h7.9l.3.2,3.4,9c.2.6,0,1-.2,1s-.3.1-.3.3.4.2,1.1.2H72c.4,0,.7-.1.7-.3S72.6,297.9,72.4,297.9Zm-11-11.6h-7c-.1,0-.2-.1-.1-.3l3.2-9.9c.2-.6.4-.6.5,0l3.5,9.9C61.6,286.2,61.6,286.3,61.4,286.3Z"/><path class="cls-1" d="M87.8,270.7H79c-.4,0-.6,0-.6.3s.2.2.3.2H80c1.2.2,1.5.8,1.5,2.1s.1,2.2.1,7.9v6.5c0,3.5,0,6.4-.2,7.9s-.3,1.9-1,2.1H79.3c-.3,0-.3.1-.3.2s.2.3.6.3h8q.6,0,.6-.3c0-.1-.1-.2-.3-.2H86.2c-1.1-.2-1.3-1-1.4-2.1s-.2-4.4-.2-7.9V272.7c0-.4.1-.6.3-.7a3.7,3.7,0,0,1,1.6-.2,6.2,6.2,0,0,1,5,1.8,7.6,7.6,0,0,1,2.1,5.6,6.1,6.1,0,0,1-6.4,6c-.7,0-1,.1-1,.4l.4.2h.8c5.2,0,9-3.6,9-8.8a6.2,6.2,0,0,0-1.8-4.3C94,272.2,92.4,270.7,87.8,270.7Z"/><path class="cls-1" d="M114.6,297.9H113c-1.1-.2-1.4-1-1.5-2.1s-.2-4.4-.2-7.9v-6.5c0-5.7,0-6.7.1-7.9s.4-1.9,1.4-2.1h.9c.1,0,.3-.1.3-.2s-.2-.3-.6-.3h-7.3c-.4,0-.6,0-.6.3s.2.2.3.2h1.1c.8.2,1.2.8,1.3,2.1s.1,2.2.1,7.9v6.5c0,3.5,0,6.4-.2,7.9s-.4,1.9-1.1,2.1h-1.1c-.2,0-.3.1-.3.2s.2.3.6.3h8.1q.6,0,.6-.3C114.9,298,114.8,297.9,114.6,297.9Z"/><path class="cls-1" d="M145.6,270.4l-1.1.2-2.6.2H128.2l-2.9-.2a9.4,9.4,0,0,1-1.7-.5c-.1,0-.3.5-.3.7s-.8,3.5-.8,3.9,0,.3.2.3.2-.1.3-.4a6.7,6.7,0,0,1,.6-1.1c.6-.9,1.5-1.2,3.8-1.2h5.4v15.6c0,3.5,0,6.4-.2,7.9s-.3,1.9-1,2.1h-1.1c-.3,0-.3.1-.3.2s.2.3.6.3h8.1q.6,0,.6-.3c0-.1-.1-.2-.3-.2h-1.7c-1.1-.2-1.3-1-1.4-2.1s-.2-4.4-.2-7.9V272.2h4.6c3.6.1,4.4.9,4.5,2v.4c0,.5.1.7.3.7s.2-.2.2-.5.1-3,.1-4.1S145.7,270.4,145.6,270.4Z"/><path class="cls-1" d="M175.5,297.9a3.9,3.9,0,0,1-1.4-.2c-.8-.2-1.9-.8-3.2-4.1-2.2-5.6-8-20.7-8.5-22.1s-.6-1.4-.8-1.4-.4.3-.8,1.5l-8.4,22.8c-.6,1.8-1.4,3.2-3.1,3.4h-1c-.2,0-.4.1-.4.2s.3.3.7.3h7.1c.3,0,.5-.1.5-.3s-.1-.2-.4-.2h-.3c-.7,0-1.4-.3-1.4-1.1a8.6,8.6,0,0,1,.5-2.4l2.2-6.5c.1-.2.2-.3.4-.3H165l.4.2,3.4,9c.2.6,0,1-.2,1s-.3.1-.3.3.4.2,1.1.2h5.8c.4,0,.7-.1.7-.3S175.8,297.9,175.5,297.9Zm-10.9-11.6h-7c-.2,0-.2-.1-.2-.3l3.3-9.9c.2-.6.3-.6.5,0l3.5,9.9C164.8,286.2,164.8,286.3,164.6,286.3Z"/><path class="cls-1" d="M198.9,293.3c-.3,0-.3.2-.4.5a6,6,0,0,1-.9,2.2c-.9,1.1-2.5,1.1-4.5,1.1s-3.8-.3-4.4-.9-.8-3-.8-8.4v-6.5c0-5.7,0-6.7.1-7.9s.4-1.9,1.4-2.1h1.2c.2,0,.3-.1.3-.2s-.2-.3-.6-.3h-8.1c-.4,0-.6,0-.6.3s.2.2.3.2h1.3c1.2.2,1.5.8,1.6,2.1v14.4c0,3.5,0,6.4-.2,7.9s-.3,1.9-1,2.1h-1.1c-.2,0-.3.1-.3.2s.2.3.6.3h13.4c2,0,2.1-.1,2.3-1a22.2,22.2,0,0,0,.6-3.6C199.1,293.5,199,293.3,198.9,293.3Z"/><path class="cls-1" d="M248.4,284.6l-3.6.2-4.2-.2q-.6,0-.6.3a.3.3,0,0,0,.3.3h1.3c1.5.4,1.6.8,1.6,3.8v6.2a1.4,1.4,0,0,1-.7,1.3,11.2,11.2,0,0,1-4.2.7,13.4,13.4,0,0,1-9.6-3.9,14.7,14.7,0,0,1-3.9-10.1c0-4.3,1.5-7.7,3.6-9.4a11.9,11.9,0,0,1,7.9-2.4c4.7,0,7.7,1.6,8.6,3a4.8,4.8,0,0,1,.8,2.4c0,.3.1.6.3.6s.3-.2.3-.8c0-3.7.2-4.7.2-5.2s0-.3-.4-.4a14.5,14.5,0,0,1-3-.3,25.7,25.7,0,0,0-5.6-.7,17.9,17.9,0,0,0-9.8,2.4,13.9,13.9,0,0,0-6.1,12c0,4.6,2.1,8.6,4.4,10.5,4.1,3.6,9.3,3.9,12.1,3.9a18.4,18.4,0,0,0,7.7-1.6c.5-.3.5-.4.5-2v-4.1c0-1.6,0-2.7.1-3.8s.4-1.9,1.4-2.1h.9a.3.3,0,0,0,.3-.3Q249,284.6,248.4,284.6Z"/><path class="cls-1" d="M285.3,297.9h-1.4a8.2,8.2,0,0,1-4.5-2.7c-2.1-2.2-4.6-5.5-7.6-9.4,3.3-3,4.4-5.7,4.4-8.4a6.3,6.3,0,0,0-2.5-5c-2-1.4-4.4-1.6-6.8-1.6h-8.4c-.4,0-.6,0-.6.3s.1.2.3.2h1.2c1.2.2,1.5.8,1.6,2.1s.1,2.2.1,7.9v6.5c0,3.5,0,6.4-.2,7.9s-.3,1.9-1.1,2.1h-1.1c-.2,0-.3.1-.3.2s.2.3.6.3h8q.6,0,.6-.3c0-.1-.1-.2-.3-.2h-1.7c-1.1-.2-1.3-1-1.4-2.1s-.2-4.4-.2-7.9v-.9a.3.3,0,0,1,.3-.3h4.5a.6.6,0,0,1,.5.2c.7.9,2.4,3.4,4,5.4s3.3,4.6,4.9,5.4a7.7,7.7,0,0,0,3.9.7h2.7c.6,0,.8-.1.8-.3S285.5,297.9,285.3,297.9Zm-14.4-13.1a4.9,4.9,0,0,1-2.8.7c-1.6,0-3.3-.2-3.8-.6s-.3-.2-.3-.4v-12c0-.2.1-.4.3-.4a7.3,7.3,0,0,1,2.5-.3c3.9,0,6.3,2.8,6.3,7.4C273.1,282,272.2,283.9,270.9,284.8Z"/><path class="cls-1" d="M303.3,270.1c-10.2,0-14.5,8.5-14.5,14.4s4.2,14.4,14.2,14.4,14.7-6.8,14.7-15S311.5,270.1,303.3,270.1Zm.7,27.4c-6.6,0-11.7-5.5-11.7-14s4.6-12.1,10.7-12.1,11.2,4.7,11.2,13.5C314.2,295.6,307.3,297.5,304,297.5Z"/><path class="cls-1" d="M351.9,270.7h-7c-.4,0-.6,0-.6.3s.1.2.3.2h1.2c1.2.2,1.5.8,1.6,2.1s.1,2.2.1,7.9v4.6c0,3.8-.5,6.9-2.1,9a7.9,7.9,0,0,1-5.8,2.6,7.2,7.2,0,0,1-5.6-2c-1.5-1.5-2.7-3.8-2.7-9.1v-5.1c0-5.7,0-6.7.1-7.9s.3-2,1.3-2.1h.9c.2,0,.3-.1.3-.2s-.1-.3-.5-.3h-7.9c-.4,0-.6,0-.6.3s.2.2.3.2h1.2c1.3.2,1.6.8,1.6,2.1s.1,2.2.1,7.9v5.4c0,5.3,1.4,7.9,3.2,9.6s6.3,2.6,7.6,2.6a10.4,10.4,0,0,0,7.5-2.7c3-2.6,3.4-7,3.4-11v-3.9c0-5.7,0-6.7.1-7.9s.3-1.9,1.3-2.1h.9c.2,0,.3-.1.3-.2S352.3,270.7,351.9,270.7Z"/><path class="cls-1" d="M370.5,270.7h-8.7c-.4,0-.6,0-.6.3s.1.2.3.2h1.2c1.2.2,1.5.8,1.6,2.1s.1,2.2.1,7.9v6.5c0,3.5,0,6.4-.2,7.9s-.3,1.9-1.1,2.1H362c-.2,0-.3.1-.3.2s.2.3.6.3h8.1c.4,0,.5-.1.5-.3s0-.2-.3-.2H369c-1.1-.2-1.3-1-1.4-2.1s-.2-4.4-.2-7.9V272.7c0-.4.1-.6.3-.7a3.4,3.4,0,0,1,1.6-.2,6.3,6.3,0,0,1,5,1.8,7.8,7.8,0,0,1,2,5.6,6.1,6.1,0,0,1-6.3,6c-.8,0-1,.1-1,.4l.4.2h.8c5.2,0,9-3.6,9-8.8a6.2,6.2,0,0,0-1.8-4.3C376.8,272.2,375.1,270.7,370.5,270.7Z"/></svg>